<svg xmlns="http://www.w3.org/2000/svg" xmlns:xlink="http://www.w3.org/1999/xlink" xmlns:lucid="lucid" width="1780.32" height="999.61"><g transform="translate(0 0)" lucid:page-tab-id="0_0"><path d="M80 849.46H48c-4.42 0-8-3.6-8-8v-161.2h40z" fill="#636aff"/><path d="M80 849.46h1652c4.42 0 8-3.6 8-8v-161.2H80z" fill="#f6f6f7"/><path d="M80 680.27H40v-180h40z" fill="#636aff"/><path d="M80 680.27h1660v-180H80z" fill="#fff"/><path d="M40 680.27h1700" stroke="#ccc" fill="none"/><path d="M80 500.27H40v-169.6h40z" fill="#636aff"/><path d="M80 500.27h1660v-169.6H80z" fill="#f6f6f7"/><path d="M40 500.27h1700" stroke="#ccc" fill="none"/><path d="M40 330.68v-162c0-4.4 3.58-8 8-8h32v170z" fill="#636aff"/><path d="M80 160.68h1652c4.42 0 8 3.6 8 8v162H80z" fill="#fff"/><path d="M40 330.68h1700M80 849.46V160.68M80 849.46H48c-4.42 0-8-3.6-8-8v-161.2m0 0v-180m0 0V330.7m0 0v-162c0-4.4 3.58-8 8-8h32m0 0h1652c4.42 0 8 3.6 8 8v162m0 349.6v-180m0 0v-169.6M80 849.46h1652c4.42 0 8-3.6 8-8v-161.2" stroke="#ccc" fill="none"/><use xlink:href="#a" transform="matrix(6.123233995736766e-17,-1,1,6.123233995736766e-17,40.00000000000006,330.68416670012675) translate(56.05 23.6)"/><use xlink:href="#b" transform="matrix(6.123233995736766e-17,-1,1,6.123233995736766e-17,40.00000000000006,500.27215511531836) translate(58.525 23.6)"/><use xlink:href="#c" transform="matrix(6.123233995736766e-17,-1,1,6.123233995736766e-17,40.00000000000006,680.2721551153184) translate(61.525 23.6)"/><use xlink:href="#d" transform="matrix(6.123233995736766e-17,-1,1,6.123233995736766e-17,40.00000000000006,849.4566173212744) translate(54.525 23.6)"/><path d="M308 40c17.67 0 32 17.9 32 40s-14.33 40-32 40h-96c-17.67 0-32-17.9-32-40s14.33-40 32-40z" stroke="#000" stroke-opacity="0" fill="#5358d3"/><use xlink:href="#e" transform="matrix(1,0,0,1,185,45) translate(24.525 38.6)"/><use xlink:href="#f" transform="matrix(1,0,0,1,185,45) translate(76.525 38.6)"/><path d="M260 120.5v45.8" stroke="#666" fill="none"/><path d="M260.5 120.5h-1v-.5h1z" fill="#666"/><path d="M260 181.07l-4.64-14.27h9.28z" stroke="#666" fill="#666"/><path d="M180 190.68c0-4.4 3.58-8 8-8h144c4.42 0 8 3.6 8 8v104c0 4.42-3.58 8-8 8H188c-4.42 0-8-3.58-8-8z" stroke="#000" stroke-opacity="0" fill="#4247a8"/><use xlink:href="#g" transform="matrix(1,0,0,1,185,187.68416670012704) translate(4.074999999999989 58.6)"/><use xlink:href="#h" transform="matrix(1,0,0,1,185,187.68416670012704) translate(71.975 58.6)"/><use xlink:href="#i" transform="matrix(1,0,0,1,185,187.68416670012704) translate(96.975 58.6)"/><path d="M340.5 242.68h62.62" stroke="#666" fill="none"/><path d="M340.5 243.18h-.5v-1h.5z" fill="#666"/><path d="M417.88 242.68l-14.26 4.64v-9.27z" stroke="#666" fill="#666"/><path d="M420 190.68c0-4.4 3.58-8 8-8h144c4.42 0 8 3.6 8 8v104c0 4.42-3.58 8-8 8H428c-4.42 0-8-3.58-8-8z" stroke="#fff" fill="#4247a8"/><use xlink:href="#j" transform="matrix(1,0,0,1,425,187.68416670012704) translate(0.5749999999999886 58.6)"/><use xlink:href="#k" transform="matrix(1,0,0,1,425,187.68416670012704) translate(68.475 58.6)"/><use xlink:href="#l" transform="matrix(1,0,0,1,425,187.68416670012704) translate(83.475 58.6)"/><path d="M660 190.68c0-4.4 3.58-8 8-8h144c4.42 0 8 3.6 8 8v104c0 4.42-3.58 8-8 8H668c-4.42 0-8-3.58-8-8z" stroke="#fff" fill="#4247a8"/><use xlink:href="#m" transform="matrix(1,0,0,1,665,187.68416670012704) translate(40.55 26.19999999999999)"/><use xlink:href="#n" transform="matrix(1,0,0,1,665,187.68416670012704) translate(99.45 26.19999999999999)"/><use xlink:href="#o" transform="matrix(1,0,0,1,665,187.68416670012704) translate(34.099999999999994 47.79999999999999)"/><use xlink:href="#p" transform="matrix(1,0,0,1,665,187.68416670012704) translate(2.625 69.39999999999999)"/><use xlink:href="#q" transform="matrix(1,0,0,1,665,187.68416670012704) translate(82.42500000000001 69.39999999999999)"/><use xlink:href="#r" transform="matrix(1,0,0,1,665,187.68416670012704) translate(108.37500000000001 69.39999999999999)"/><use xlink:href="#s" transform="matrix(1,0,0,1,665,187.68416670012704) translate(51.05 91)"/><path d="M880 362.6c0-4.42 3.58-8 8-8h144c4.42 0 8 3.58 8 8v104c0 4.4-3.58 8-8 8H888c-4.42 0-8-3.6-8-8z" stroke="#fff" fill="#4247a8"/><use xlink:href="#t" transform="matrix(1,0,0,1,885,359.59527457894933) translate(1.0999999999999943 47.8)"/><use xlink:href="#u" transform="matrix(1,0,0,1,885,359.59527457894933) translate(58.099999999999994 47.8)"/><use xlink:href="#q" transform="matrix(1,0,0,1,885,359.59527457894933) translate(29.074999999999996 69.4)"/><use xlink:href="#v" transform="matrix(1,0,0,1,885,359.59527457894933) translate(55.02499999999999 69.4)"/><use xlink:href="#w" transform="matrix(1,0,0,1,885,359.59527457894933) translate(70.025 69.4)"/><path d="M1360 190.68c0-4.4 3.58-8 8-8h144c4.42 0 8 3.6 8 8v104c0 4.42-3.58 8-8 8h-144c-4.42 0-8-3.58-8-8z" stroke="#fff" fill="#4247a8"/><use xlink:href="#j" transform="matrix(1,0,0,1,1365,187.68416670012704) translate(12.074999999999996 47.8)"/><use xlink:href="#k" transform="matrix(1,0,0,1,1365,187.68416670012704) translate(79.975 47.8)"/><use xlink:href="#x" transform="matrix(1,0,0,1,1365,187.68416670012704) translate(94.975 47.8)"/><use xlink:href="#y" transform="matrix(1,0,0,1,1365,187.68416670012704) translate(42.025 69.4)"/><path d="M1120 710.5c0-4.43 3.58-8 8-8h144c4.42 0 8 3.57 8 8v104c0 4.4-3.58 8-8 8h-144c-4.42 0-8-3.6-8-8z" stroke="#fff" fill="#4247a8"/><use xlink:href="#z" transform="matrix(1,0,0,1,1125,707.4887198572135) translate(4.474999999999994 47.8)"/><use xlink:href="#A" transform="matrix(1,0,0,1,1125,707.4887198572135) translate(65.625 47.8)"/><use xlink:href="#B" transform="matrix(1,0,0,1,1125,707.4887198572135) translate(135.525 47.8)"/><use xlink:href="#C" transform="matrix(1,0,0,1,1125,707.4887198572135) translate(1.5749999999999886 69.4)"/><use xlink:href="#q" transform="matrix(1,0,0,1,1125,707.4887198572135) translate(66.52499999999999 69.4)"/><use xlink:href="#v" transform="matrix(1,0,0,1,1125,707.4887198572135) translate(92.475 69.4)"/><use xlink:href="#D" transform="matrix(1,0,0,1,1125,707.4887198572135) translate(107.475 69.4)"/><path d="M1200 701.5V319.56" stroke="#666" fill="none"/><path d="M1200.5 702h-1v-.52h1z" fill="#666"/><path d="M1200 304.8l4.64 14.27h-9.28z" stroke="#666" fill="#666"/><path d="M1120 190.68c0-4.4 3.58-8 8-8h144c4.42 0 8 3.6 8 8v104c0 4.42-3.58 8-8 8h-144c-4.42 0-8-3.58-8-8z" stroke="#fff" fill="#4247a8"/><use xlink:href="#E" transform="matrix(1,0,0,1,1125,187.68416670012704) translate(7.074999999999989 47.8)"/><use xlink:href="#F" transform="matrix(1,0,0,1,1125,187.68416670012704) translate(66.975 47.8)"/><use xlink:href="#G" transform="matrix(1,0,0,1,1125,187.68416670012704) translate(22.049999999999997 69.4)"/><use xlink:href="#H" transform="matrix(1,0,0,1,1125,187.68416670012704) translate(68 69.4)"/><path d="M1360 533.17c0-4.42 3.58-8 8-8h144c4.42 0 8 3.58 8 8v104c0 4.42-3.58 8-8 8h-144c-4.42 0-8-3.58-8-8z" stroke="#fff" fill="#4247a8"/><use xlink:href="#I" transform="matrix(1,0,0,1,1365,530.1728865573405) translate(6.074999999999989 47.8)"/><use xlink:href="#J" transform="matrix(1,0,0,1,1365,530.1728865573405) translate(63.974999999999994 47.8)"/><use xlink:href="#G" transform="matrix(1,0,0,1,1365,530.1728865573405) translate(22.049999999999997 69.4)"/><use xlink:href="#H" transform="matrix(1,0,0,1,1365,530.1728865573405) translate(68 69.4)"/><path d="M1540 710.5c0-4.43 3.58-8 8-8h144c4.42 0 8 3.57 8 8v104c0 4.4-3.58 8-8 8h-144c-4.42 0-8-3.6-8-8z" stroke="#fff" fill="#4247a8"/><use xlink:href="#z" transform="matrix(1,0,0,1,1545,707.4887198572135) translate(16 47.8)"/><use xlink:href="#K" transform="matrix(1,0,0,1,1545,707.4887198572135) translate(77.15 47.8)"/><use xlink:href="#L" transform="matrix(1,0,0,1,1545,707.4887198572135) translate(54.525 69.4)"/><path d="M1668 879.8c17.67 0 32 17.9 32 40s-14.33 40-32 40h-96c-17.67 0-32-17.9-32-40s14.33-40 32-40z" stroke="#fff" fill="#4247a8"/><use xlink:href="#M" transform="matrix(1,0,0,1,1545,884.8045531570865) translate(20.924999999999997 38.6)"/><use xlink:href="#N" transform="matrix(1,0,0,1,1545,884.8045531570865) translate(68.875 38.6)"/><path d="M1488 879.8c17.67 0 32 17.9 32 40s-14.33 40-32 40h-96c-17.67 0-32-17.9-32-40s14.33-40 32-40z" stroke="#000" stroke-opacity="0" fill="#5358d3"/><use xlink:href="#O" transform="matrix(1,0,0,1,1365,884.8045531570865) translate(13.549999999999997 38.6)"/><use xlink:href="#P" transform="matrix(1,0,0,1,1365,884.8045531570865) translate(93.5 38.6)"/><path d="M1281 242.68h62.12" stroke="#666" fill="none"/><path d="M1281 243.18h-.5v-1h.5z" fill="#666"/><path d="M1357.88 242.68l-14.26 4.64v-9.27z" stroke="#666" fill="#666"/><path d="M740 303.68v559.24" stroke="#666" fill="none"/><path d="M740.5 303.7h-1v-.52h1z" fill="#666"/><path d="M740 877.7l-4.64-14.28h9.28z" stroke="#666" fill="#666"/><path d="M788 879.8c17.67 0 32 17.9 32 40s-14.33 40-32 40h-96c-17.67 0-32-17.9-32-40s14.33-40 32-40z" stroke="#fff" fill="#4247a8"/><g><use xlink:href="#Q" transform="matrix(1,0,0,1,665,884.8045531570865) translate(22.025 38.6)"/><use xlink:href="#R" transform="matrix(1,0,0,1,665,884.8045531570865) translate(75.975 38.6)"/><use xlink:href="#S" transform="matrix(1,0,0,1,665,884.8045531570865) translate(107.975 38.6)"/></g><path d="M1008 39.8c17.67 0 32 17.9 32 40s-14.33 40-32 40h-96c-17.67 0-32-17.9-32-40s14.33-40 32-40z" stroke="#000" stroke-opacity="0" fill="#5358d3"/><g><use xlink:href="#T" transform="matrix(1,0,0,1,885,44.8045531570865) translate(34.525 27.799999999999997)"/><use xlink:href="#U" transform="matrix(1,0,0,1,885,44.8045531570865) translate(82.525 27.799999999999997)"/><use xlink:href="#V" transform="matrix(1,0,0,1,885,44.8045531570865) translate(39.525 49.4)"/></g><path d="M960 120.3v217.4" stroke="#666" fill="none"/><path d="M960.5 120.32h-1v-.52h1z" fill="#666"/><path d="M960 352.48l-4.64-14.27h9.28z" stroke="#666" fill="#666"/><path d="M1008 879.8c17.67 0 32 17.9 32 40s-14.33 40-32 40h-96c-17.67 0-32-17.9-32-40s14.33-40 32-40z" stroke="#fff" fill="#4247a8"/><g><use xlink:href="#W" transform="matrix(1,0,0,1,885,884.8045531570865) translate(23.574999999999996 27.799999999999997)"/><use xlink:href="#X" transform="matrix(1,0,0,1,885,884.8045531570865) translate(64.475 27.799999999999997)"/><use xlink:href="#Y" transform="matrix(1,0,0,1,885,884.8045531570865) translate(48.5 49.4)"/></g><path d="M960 475.6v387.32" stroke="#666" fill="none"/><path d="M960.5 475.6h-1v-.5h1z" fill="#666"/><path d="M960 877.7l-4.64-14.28h9.28z" stroke="#666" fill="#666"/><path d="M1620 823.5v39.42" stroke="#666" fill="none"/><path d="M1620.5 823.5h-1v-.5h1z" fill="#666"/><path d="M1620 877.7l-4.64-14.28h9.28z" stroke="#666" fill="#666"/><path d="M581 242.68h62.12" stroke="#666" fill="none"/><path d="M581 243.18h-.5v-1h.5z" fill="#666"/><path d="M657.88 242.68l-14.26 4.64v-9.27z" stroke="#666" fill="#666"/><path d="M1248 879.8c17.67 0 32 17.9 32 40s-14.33 40-32 40h-96c-17.67 0-32-17.9-32-40s14.33-40 32-40z" stroke="#000" stroke-opacity="0" fill="#5358d3"/><g><use xlink:href="#O" transform="matrix(1,0,0,1,1125,884.8045531570865) translate(18.549999999999997 27.799999999999997)"/><use xlink:href="#U" transform="matrix(1,0,0,1,1125,884.8045531570865) translate(98.5 27.799999999999997)"/><use xlink:href="#Z" transform="matrix(1,0,0,1,1125,884.8045531570865) translate(34.025 49.4)"/><use xlink:href="#aa" transform="matrix(1,0,0,1,1125,884.8045531570865) translate(81.975 49.4)"/></g><path d="M1200 879.3v-39.93" stroke="#666" fill="none"/><path d="M1200.5 879.8h-1v-.5h1z" fill="#666"/><path d="M1200 824.6l4.64 14.27h-9.28z" stroke="#666" fill="#666"/><path d="M1488 39.8c17.67 0 32 17.9 32 40s-14.33 40-32 40h-96c-17.67 0-32-17.9-32-40s14.33-40 32-40z" stroke="#fff" fill="#4247a8"/><g><use xlink:href="#W" transform="matrix(1,0,0,1,1365,44.8045531570865) translate(13.574999999999996 27.799999999999997)"/><use xlink:href="#ab" transform="matrix(1,0,0,1,1365,44.8045531570865) translate(54.475 27.799999999999997)"/><use xlink:href="#ac" transform="matrix(1,0,0,1,1365,44.8045531570865) translate(102.42500000000001 27.799999999999997)"/><use xlink:href="#ad" transform="matrix(1,0,0,1,1365,44.8045531570865) translate(34.525 49.4)"/></g><path d="M1360 710.5c0-4.43 3.58-8 8-8h144c4.42 0 8 3.57 8 8v104c0 4.4-3.58 8-8 8h-144c-4.42 0-8-3.6-8-8z" stroke="#fff" fill="#4247a8"/><g><use xlink:href="#z" transform="matrix(1,0,0,1,1365,707.4887198572135) translate(16.449999999999996 47.8)"/><use xlink:href="#ae" transform="matrix(1,0,0,1,1365,707.4887198572135) translate(77.6 47.8)"/><use xlink:href="#L" transform="matrix(1,0,0,1,1365,707.4887198572135) translate(54.525 69.4)"/></g><path d="M1521 585.17h87c6.63 0 12 5.38 12 12v88.43" stroke="#666" fill="none"/><path d="M1521 585.67h-.5v-1h.5z" fill="#666"/><path d="M1620 700.37l-4.64-14.27h9.28z" stroke="#666" fill="#666"/><path d="M1440 879.3v-39.93" stroke="#666" fill="none"/><path d="M1440.5 879.8h-1v-.5h1z" fill="#666"/><path d="M1440 824.6l4.64 14.27h-9.28z" stroke="#666" fill="#666"/><path d="M1440 701.5v-39.44" stroke="#666" fill="none"/><path d="M1440.5 702h-1v-.52h1z" fill="#666"/><path d="M1440 647.3l4.64 14.26h-9.28z" stroke="#666" fill="#666"/><path d="M1440 181.68v-45" stroke="#666" fill="none"/><path d="M1440.5 182.18h-1v-.5h1z" fill="#666"/><path d="M1440 121.92l4.64 14.27h-9.28z" stroke="#666" fill="#666"/><defs><path fill="#fff" d="M212 0l43-212L151 0h-37L90-212C82-137 65-70 52 0H6l48-248h70l20 187 93-187h69L258 0h-46" id="af"/><path fill="#fff" d="M166-52c-4 17 5 29 24 23l-3 27c-30 11-74 1-67-34C105-15 91 4 56 4 23 4 3-15 2-49c0-64 63-67 128-67 10-22 3-53-29-45-13 3-22 10-25 24l-46-5c5-64 156-77 153 0-1 33-11 60-17 90zM97-88c-44-9-64 57-19 57 31 0 42-28 47-57H97" id="ag"/><path fill="#fff" d="M144-137c-1-29-70-35-71-2 16 41 103 10 103 80C176 9 79 16 32-9 18-17 9-31 4-48l44-6c3 32 80 36 82 1-15-42-103-11-103-82 0-77 157-79 161-8" id="ah"/><path fill="#fff" d="M72-63c-8 23 5 39 32 30L98-1C54 14 12-6 23-64l18-93H15l7-33h28l24-45h31l-8 45h35l-6 33H90" id="ai"/><path fill="#fff" d="M114-194c63-2 87 48 72 110H63c-3 28 1 55 31 54 21-1 32-13 37-29l44 13C160-14 137 4 91 4 41 4 11-22 11-73c0-71 33-119 103-121zm30 77c14-47-50-61-67-22-3 6-6 13-8 22h75" id="aj"/><path fill="#fff" d="M84-151c13-25 34-51 72-40l-8 41C67-170 71-64 56 0H6l36-190h47" id="ak"/><g id="a"><use transform="matrix(0.05,0,0,0.05,0,0)" xlink:href="#af"/><use transform="matrix(0.05,0,0,0.05,14.950000000000001,0)" xlink:href="#ag"/><use transform="matrix(0.05,0,0,0.05,24.950000000000003,0)" xlink:href="#ah"/><use transform="matrix(0.05,0,0,0.05,34.95,0)" xlink:href="#ai"/><use transform="matrix(0.05,0,0,0.05,40.900000000000006,0)" xlink:href="#aj"/><use transform="matrix(0.05,0,0,0.05,50.900000000000006,0)" xlink:href="#ak"/></g><path fill="#fff" d="M24 0v-248h52V0H24" id="al"/><path fill="#fff" d="M137-138c1-29-70-34-71-4 15 46 118 7 119 86 1 83-164 76-172 9l43-7c4 19 20 25 44 25 33 8 57-30 24-41C81-84 22-81 20-136c-2-80 154-74 161-7" id="am"/><path fill="#fff" d="M85 4C-2 5 27-109 22-190h50c7 57-23 150 33 157 60-5 35-97 40-157h50l1 190h-47c-2-12 1-28-3-38-12 25-28 42-61 42" id="an"/><path fill="#fff" d="M185-48c-13 30-37 53-82 52C43 2 14-33 14-96s30-98 90-98c62 0 83 45 84 108H66c0 31 8 55 39 56 18 0 30-7 34-22zm-45-69c5-46-57-63-70-21-2 6-4 13-4 21h74" id="ao"/><path fill="#fff" d="M135-150c-39-12-60 13-60 57V0H25l-1-190h47c2 13-1 29 3 40 6-28 27-53 61-41v41" id="ap"/><g id="b"><use transform="matrix(0.05,0,0,0.05,0,0)" xlink:href="#al"/><use transform="matrix(0.05,0,0,0.05,5,0)" xlink:href="#am"/><use transform="matrix(0.05,0,0,0.05,15,0)" xlink:href="#am"/><use transform="matrix(0.05,0,0,0.05,25,0)" xlink:href="#an"/><use transform="matrix(0.05,0,0,0.05,35.95,0)" xlink:href="#ao"/><use transform="matrix(0.05,0,0,0.05,45.95,0)" xlink:href="#ap"/></g><path fill="#fff" d="M24-248c93 1 206-16 204 79-1 75-69 88-152 82V0H24v-248zm52 121c47 0 100 7 100-41 0-47-54-39-100-39v80" id="aq"/><path fill="#fff" d="M110-194c64 0 96 36 96 99 0 64-35 99-97 99-61 0-95-36-95-99 0-62 34-99 96-99zm-1 164c35 0 45-28 45-65 0-40-10-65-43-65-34 0-45 26-45 65 0 36 10 65 43 65" id="ar"/><path fill="#fff" d="M128 0H69L1-190h53L99-40l48-150h52" id="as"/><g id="c"><use transform="matrix(0.05,0,0,0.05,0,0)" xlink:href="#aq"/><use transform="matrix(0.05,0,0,0.05,12,0)" xlink:href="#ap"/><use transform="matrix(0.05,0,0,0.05,19,0)" xlink:href="#ar"/><use transform="matrix(0.05,0,0,0.05,29.950000000000003,0)" xlink:href="#as"/><use transform="matrix(0.05,0,0,0.05,39.95,0)" xlink:href="#ao"/><use transform="matrix(0.05,0,0,0.05,49.95,0)" xlink:href="#ap"/></g><path fill="#fff" d="M147 0H94L2-248h55l64 206c17-72 42-137 63-206h54" id="at"/><path fill="#fff" d="M25-224v-37h50v37H25zM25 0v-190h50V0H25" id="au"/><path fill="#fff" d="M121-226c-27-7-43 5-38 36h38v33H83V0H34v-157H6v-33h28c-9-59 32-81 87-68v32" id="av"/><g id="d"><use transform="matrix(0.05,0,0,0.05,0,0)" xlink:href="#at"/><use transform="matrix(0.05,0,0,0.05,11,0)" xlink:href="#ao"/><use transform="matrix(0.05,0,0,0.05,21,0)" xlink:href="#ap"/><use transform="matrix(0.05,0,0,0.05,28,0)" xlink:href="#au"/><use transform="matrix(0.05,0,0,0.05,33,0)" xlink:href="#av"/><use transform="matrix(0.05,0,0,0.05,38.95,0)" xlink:href="#au"/><use transform="matrix(0.05,0,0,0.05,43.95,0)" xlink:href="#ao"/><use transform="matrix(0.05,0,0,0.05,53.95,0)" xlink:href="#ap"/></g><path fill="#fff" d="M194-120c59 52 2 134-86 124-53-6-90-18-98-63l31-7c8 30 29 43 70 43 46 0 84-17 71-62-32-43-135-20-137-98-3-89 178-90 191-16l-30 9c-8-48-127-53-127 5 0 53 81 35 115 65" id="aw"/><path fill="#fff" d="M111-194c62-3 86 47 72 106H45c-7 38 6 69 45 68 27-1 43-14 53-32l24 11C152-15 129 4 87 4 38 3 12-23 12-71c0-70 32-119 99-123zm44 81c14-66-71-72-95-28-4 8-8 17-11 28h106" id="ax"/><path fill="#fff" d="M51-54c-9 22 5 41 31 30L79-1C43 14 10-4 19-52l22-115H19l5-23h22l19-43h21l-9 43h35l-4 23H73" id="ay"/><path fill="#fff" d="M67 3c-93-2-31-127-26-193h32L48-50c-3 39 53 32 70 12 30-34 30-101 43-152h32L157 0h-30c1-10 6-24 4-33-14 20-29 37-64 36" id="az"/><path fill="#fff" d="M67-162c32-53 139-36 121 50C175-51 163 2 97 4 68 4 52-11 42-31 38 6 28 39 22 75H-9l50-265h29c-1 10 0 20-3 28zm89 36c0-26-10-43-35-43-54 0-67 50-69 103-1 29 14 45 42 46 53 0 62-58 62-106" id="aA"/><g id="e"><use transform="matrix(0.05,0,0,0.05,0,0)" xlink:href="#aw"/><use transform="matrix(0.05,0,0,0.05,12,0)" xlink:href="#ax"/><use transform="matrix(0.05,0,0,0.05,22,0)" xlink:href="#ay"/><use transform="matrix(0.05,0,0,0.05,27,0)" xlink:href="#az"/><use transform="matrix(0.05,0,0,0.05,37,0)" xlink:href="#aA"/></g><path fill="#fff" d="M14 0l48-248h34L48 0H14" id="aB"/><path fill="#fff" d="M55-144c13 50 104 24 104 88C159 21 15 23 1-39l26-10c6 40 102 42 102-4-13-50-104-23-104-87 0-71 143-71 148-8l-29 4c-5-35-85-37-89 0" id="aC"/><path fill="#fff" d="M66-151c12-25 30-51 66-40l-6 26C45-176 58-65 38 0H6l36-190h30" id="aD"/><g id="f"><use transform="matrix(0.05,0,0,0.05,0,0)" xlink:href="#aB"/><use transform="matrix(0.05,0,0,0.05,5,0)" xlink:href="#aC"/><use transform="matrix(0.05,0,0,0.05,14,0)" xlink:href="#aC"/><use transform="matrix(0.05,0,0,0.05,23,0)" xlink:href="#az"/><use transform="matrix(0.05,0,0,0.05,33,0)" xlink:href="#ax"/><use transform="matrix(0.05,0,0,0.05,43,0)" xlink:href="#aD"/></g><path fill="#fff" d="M125-24c46 0 70-25 89-51l25 16C214-24 183 4 123 4 8 4-5-146 60-208c32-50 158-61 191-5 5 7 9 14 11 22l-32 10c-9-28-33-43-69-43-74 0-108 51-108 125 0 46 24 75 72 75" id="aE"/><path fill="#fff" d="M165-48c-4 18 1 34 23 27l-3 20c-29 8-62 0-52-35h-2C116-14 99 4 63 4 30 4 8-16 8-49c0-68 71-67 138-67 10-26 0-56-31-54-26 1-42 9-47 31l-32-5c8-67 160-71 144 15-5 28-9 54-15 81zM42-50c3 52 80 24 89-6 7-12 7-24 11-38-47 1-103-4-100 44" id="aF"/><g id="g"><use transform="matrix(0.05,0,0,0.05,0,0)" xlink:href="#aE"/><use transform="matrix(0.05,0,0,0.05,12.950000000000001,0)" xlink:href="#aD"/><use transform="matrix(0.05,0,0,0.05,18.900000000000002,0)" xlink:href="#ax"/><use transform="matrix(0.05,0,0,0.05,28.900000000000002,0)" xlink:href="#aF"/><use transform="matrix(0.05,0,0,0.05,38.900000000000006,0)" xlink:href="#ay"/><use transform="matrix(0.05,0,0,0.05,43.900000000000006,0)" xlink:href="#ax"/><use transform="matrix(0.05,0,0,0.05,53.900000000000006,0)" xlink:href="#aC"/></g><path fill="#fff" d="M67-158c22-48 132-52 116 29L158 0h-32l25-140c3-38-53-32-70-12C52-117 51-52 38 0H6l36-190h30" id="aG"/><g id="h"><use transform="matrix(0.05,0,0,0.05,0,0)" xlink:href="#aF"/><use transform="matrix(0.05,0,0,0.05,10,0)" xlink:href="#aG"/></g><g id="i"><use transform="matrix(0.05,0,0,0.05,0,0)" xlink:href="#aB"/><use transform="matrix(0.05,0,0,0.05,5,0)" xlink:href="#aC"/><use transform="matrix(0.05,0,0,0.05,14,0)" xlink:href="#aC"/><use transform="matrix(0.05,0,0,0.05,23,0)" xlink:href="#az"/><use transform="matrix(0.05,0,0,0.05,33,0)" xlink:href="#ax"/><use transform="matrix(0.05,0,0,0.05,43,0)" xlink:href="#aD"/></g><g id="j"><use transform="matrix(0.05,0,0,0.05,0,0)" xlink:href="#aE"/><use transform="matrix(0.05,0,0,0.05,12.950000000000001,0)" xlink:href="#aD"/><use transform="matrix(0.05,0,0,0.05,18.900000000000002,0)" xlink:href="#ax"/><use transform="matrix(0.05,0,0,0.05,28.900000000000002,0)" xlink:href="#aF"/><use transform="matrix(0.05,0,0,0.05,38.900000000000006,0)" xlink:href="#ay"/><use transform="matrix(0.05,0,0,0.05,43.900000000000006,0)" xlink:href="#ax"/><use transform="matrix(0.05,0,0,0.05,53.900000000000006,0)" xlink:href="#aC"/></g><use transform="matrix(0.05,0,0,0.05,0,0)" xlink:href="#aF" id="k"/><path fill="#fff" d="M44-68c0 29 11 47 38 47 30 0 42-19 51-41l28 9C148-21 126 4 82 4 31 4 10-29 12-85c3-77 74-140 146-93 12 8 15 23 18 40l-31 5c-1-22-13-36-36-36-52 0-65 49-65 101" id="aH"/><path fill="#fff" d="M67-158c15-20 31-36 64-36 94 0 33 127 27 194h-32l25-140c3-38-53-32-70-12C52-117 51-51 37 0H6l51-261h31" id="aI"/><path fill="#fff" d="M248-111c6-24 9-61-24-58-72 9-57 108-77 169h-31l26-142c3-37-50-30-64-10C52-115 50-51 37 0H6l36-190h30c-1 10-6 24-4 32 13-43 101-52 105 5 13-22 29-41 61-41 90 0 28 129 23 194h-31" id="aJ"/><g id="l"><use transform="matrix(0.05,0,0,0.05,0,0)" xlink:href="#aw"/><use transform="matrix(0.05,0,0,0.05,12,0)" xlink:href="#aH"/><use transform="matrix(0.05,0,0,0.05,21,0)" xlink:href="#aI"/><use transform="matrix(0.05,0,0,0.05,31,0)" xlink:href="#ax"/><use transform="matrix(0.05,0,0,0.05,41,0)" xlink:href="#aJ"/><use transform="matrix(0.05,0,0,0.05,55.95,0)" xlink:href="#aF"/></g><g id="m"><use transform="matrix(0.05,0,0,0.05,0,0)" xlink:href="#aE"/><use transform="matrix(0.05,0,0,0.05,12.950000000000001,0)" xlink:href="#aD"/><use transform="matrix(0.05,0,0,0.05,18.900000000000002,0)" xlink:href="#ax"/><use transform="matrix(0.05,0,0,0.05,28.900000000000002,0)" xlink:href="#aF"/><use transform="matrix(0.05,0,0,0.05,38.900000000000006,0)" xlink:href="#ay"/><use transform="matrix(0.05,0,0,0.05,43.900000000000006,0)" xlink:href="#ax"/></g><use transform="matrix(0.05,0,0,0.05,0,0)" xlink:href="#aF" id="n"/><path fill="#fff" d="M133-28C103 26-5 8 13-77c13-62 24-115 90-117 29-1 46 15 56 35l19-102h32L160 0h-30zM45-64c-2 27 10 43 35 43 54-1 69-50 69-103 0-29-15-46-42-46-53-1-58 58-62 106" id="aK"/><path fill="#fff" d="M50-231l6-30h32l-6 30H50zM6 0l37-190h31L37 0H6" id="aL"/><path fill="#fff" d="M6 0l50-261h32L37 0H6" id="aM"/><g id="o"><use transform="matrix(0.05,0,0,0.05,0,0)" xlink:href="#aE"/><use transform="matrix(0.05,0,0,0.05,12.950000000000001,0)" xlink:href="#aD"/><use transform="matrix(0.05,0,0,0.05,18.900000000000002,0)" xlink:href="#ax"/><use transform="matrix(0.05,0,0,0.05,28.900000000000002,0)" xlink:href="#aK"/><use transform="matrix(0.05,0,0,0.05,38.900000000000006,0)" xlink:href="#ax"/><use transform="matrix(0.05,0,0,0.05,48.900000000000006,0)" xlink:href="#aG"/><use transform="matrix(0.05,0,0,0.05,58.900000000000006,0)" xlink:href="#ay"/><use transform="matrix(0.05,0,0,0.05,63.900000000000006,0)" xlink:href="#aL"/><use transform="matrix(0.05,0,0,0.05,67.85000000000001,0)" xlink:href="#aF"/><use transform="matrix(0.05,0,0,0.05,77.85000000000001,0)" xlink:href="#aM"/></g><path fill="#fff" d="M248-139C247-14 144 9 11 0l48-248c105-6 190 8 189 109zm-34 0c1-70-52-87-126-82L50-27c98 7 163-21 164-112" id="aN"/><path fill="#fff" d="M76-167L44 0H12l33-167H18l4-23h27c3-47 25-81 82-69l-4 24c-35-8-44 15-46 45h37l-5 23H76" id="aO"/><path fill="#fff" d="M30-147c31-64 166-65 159 27C183-49 158 1 86 4 9 8 1-88 30-147zM88-20c53 0 68-48 68-100 0-31-11-51-44-50-52 1-68 46-68 97 0 32 13 53 44 53" id="aP"/><g id="p"><use transform="matrix(0.05,0,0,0.05,0,0)" xlink:href="#aN"/><use transform="matrix(0.05,0,0,0.05,12.950000000000001,0)" xlink:href="#ax"/><use transform="matrix(0.05,0,0,0.05,22.950000000000003,0)" xlink:href="#aO"/><use transform="matrix(0.05,0,0,0.05,27.950000000000003,0)" xlink:href="#aL"/><use transform="matrix(0.05,0,0,0.05,31.900000000000002,0)" xlink:href="#aG"/><use transform="matrix(0.05,0,0,0.05,41.900000000000006,0)" xlink:href="#aL"/><use transform="matrix(0.05,0,0,0.05,45.85000000000001,0)" xlink:href="#ay"/><use transform="matrix(0.05,0,0,0.05,50.85000000000001,0)" xlink:href="#aL"/><use transform="matrix(0.05,0,0,0.05,54.80000000000001,0)" xlink:href="#aP"/><use transform="matrix(0.05,0,0,0.05,64.80000000000001,0)" xlink:href="#aG"/></g><g id="q"><use transform="matrix(0.05,0,0,0.05,0,0)" xlink:href="#aO"/><use transform="matrix(0.05,0,0,0.05,5,0)" xlink:href="#aP"/><use transform="matrix(0.05,0,0,0.05,15,0)" xlink:href="#aD"/></g><g id="r"><use transform="matrix(0.05,0,0,0.05,0,0)" xlink:href="#ax"/><use transform="matrix(0.05,0,0,0.05,10,0)" xlink:href="#aF"/><use transform="matrix(0.05,0,0,0.05,20,0)" xlink:href="#aH"/><use transform="matrix(0.05,0,0,0.05,29,0)" xlink:href="#aI"/></g><g id="s"><use transform="matrix(0.05,0,0,0.05,0,0)" xlink:href="#aL"/><use transform="matrix(0.05,0,0,0.05,3.95,0)" xlink:href="#aC"/><use transform="matrix(0.05,0,0,0.05,12.949999999999998,0)" xlink:href="#aC"/><use transform="matrix(0.05,0,0,0.05,21.95,0)" xlink:href="#az"/><use transform="matrix(0.05,0,0,0.05,31.950000000000003,0)" xlink:href="#ax"/><use transform="matrix(0.05,0,0,0.05,41.95,0)" xlink:href="#aD"/></g><g id="t"><use transform="matrix(0.05,0,0,0.05,0,0)" xlink:href="#aB"/><use transform="matrix(0.05,0,0,0.05,5,0)" xlink:href="#aC"/><use transform="matrix(0.05,0,0,0.05,14,0)" xlink:href="#aC"/><use transform="matrix(0.05,0,0,0.05,23,0)" xlink:href="#az"/><use transform="matrix(0.05,0,0,0.05,33,0)" xlink:href="#ax"/><use transform="matrix(0.05,0,0,0.05,43,0)" xlink:href="#aC"/></g><g id="u"><use transform="matrix(0.05,0,0,0.05,0,0)" xlink:href="#aE"/><use transform="matrix(0.05,0,0,0.05,12.950000000000001,0)" xlink:href="#aD"/><use transform="matrix(0.05,0,0,0.05,18.900000000000002,0)" xlink:href="#ax"/><use transform="matrix(0.05,0,0,0.05,28.900000000000002,0)" xlink:href="#aK"/><use transform="matrix(0.05,0,0,0.05,38.900000000000006,0)" xlink:href="#ax"/><use transform="matrix(0.05,0,0,0.05,48.900000000000006,0)" xlink:href="#aG"/><use transform="matrix(0.05,0,0,0.05,58.900000000000006,0)" xlink:href="#ay"/><use transform="matrix(0.05,0,0,0.05,63.900000000000006,0)" xlink:href="#aL"/><use transform="matrix(0.05,0,0,0.05,67.85000000000001,0)" xlink:href="#aF"/><use transform="matrix(0.05,0,0,0.05,77.85000000000001,0)" xlink:href="#aM"/><use transform="matrix(0.05,0,0,0.05,81.80000000000001,0)" xlink:href="#aC"/></g><use transform="matrix(0.05,0,0,0.05,0,0)" xlink:href="#aF" id="v"/><path fill="#fff" d="M89 0H52L20-190h33L74-25l89-165h34" id="aQ"/><g id="w"><use transform="matrix(0.05,0,0,0.05,0,0)" xlink:href="#aA"/><use transform="matrix(0.05,0,0,0.05,10,0)" xlink:href="#aD"/><use transform="matrix(0.05,0,0,0.05,15.949999999999998,0)" xlink:href="#aP"/><use transform="matrix(0.05,0,0,0.05,25.950000000000003,0)" xlink:href="#aQ"/><use transform="matrix(0.05,0,0,0.05,34.95,0)" xlink:href="#ax"/><use transform="matrix(0.05,0,0,0.05,44.95,0)" xlink:href="#aD"/></g><path fill="#fff" d="M238-179c0 84-86 86-175 82L45 0H11l48-248c82 0 179-12 179 69zm-34 1c0-53-64-42-116-43l-19 98c63 0 135 9 135-55" id="aR"/><g id="x"><use transform="matrix(0.05,0,0,0.05,0,0)" xlink:href="#aR"/><use transform="matrix(0.05,0,0,0.05,12,0)" xlink:href="#aD"/><use transform="matrix(0.05,0,0,0.05,17.95,0)" xlink:href="#aP"/><use transform="matrix(0.05,0,0,0.05,27.950000000000003,0)" xlink:href="#aP"/><use transform="matrix(0.05,0,0,0.05,37.95,0)" xlink:href="#aO"/></g><g id="y"><use transform="matrix(0.05,0,0,0.05,0,0)" xlink:href="#aw"/><use transform="matrix(0.05,0,0,0.05,12,0)" xlink:href="#aH"/><use transform="matrix(0.05,0,0,0.05,21,0)" xlink:href="#aI"/><use transform="matrix(0.05,0,0,0.05,31,0)" xlink:href="#ax"/><use transform="matrix(0.05,0,0,0.05,41,0)" xlink:href="#aJ"/><use transform="matrix(0.05,0,0,0.05,55.95,0)" xlink:href="#aF"/></g><path fill="#fff" d="M119 0H84L31-248h34l41 218 126-218h36" id="aS"/><g id="z"><use transform="matrix(0.05,0,0,0.05,0,0)" xlink:href="#aS"/><use transform="matrix(0.05,0,0,0.05,11.35,0)" xlink:href="#ax"/><use transform="matrix(0.05,0,0,0.05,21.35,0)" xlink:href="#aD"/><use transform="matrix(0.05,0,0,0.05,27.3,0)" xlink:href="#aL"/><use transform="matrix(0.05,0,0,0.05,31.25,0)" xlink:href="#aO"/><use transform="matrix(0.05,0,0,0.05,36.25,0)" xlink:href="#aL"/><use transform="matrix(0.05,0,0,0.05,40.2,0)" xlink:href="#ax"/><use transform="matrix(0.05,0,0,0.05,50.2,0)" xlink:href="#aD"/></g><path fill="#fff" d="M68-162c25-46 127-43 121 31C183-60 169 1 98 4 69 5 53-11 43-31L36 0H5l52-261h31zm88 36c2-27-9-43-34-43-55 0-70 51-70 103 0 29 15 45 43 46 52 0 58-58 61-106" id="aT"/><g id="A"><use transform="matrix(0.05,0,0,0.05,0,0)" xlink:href="#aw"/><use transform="matrix(0.05,0,0,0.05,12,0)" xlink:href="#az"/><use transform="matrix(0.05,0,0,0.05,22,0)" xlink:href="#aT"/><use transform="matrix(0.05,0,0,0.05,32,0)" xlink:href="#aJ"/><use transform="matrix(0.05,0,0,0.05,46.95,0)" xlink:href="#aL"/><use transform="matrix(0.05,0,0,0.05,50.900000000000006,0)" xlink:href="#ay"/><use transform="matrix(0.05,0,0,0.05,55.900000000000006,0)" xlink:href="#aC"/></g><use transform="matrix(0.05,0,0,0.05,0,0)" xlink:href="#aF" id="B"/><path fill="#fff" d="M133-28C103 26-5 8 13-77c13-62 24-115 90-117 29-1 46 15 56 35 2-12 6-24 8-34h31L144 75h-31zM45-64c-2 27 10 43 35 43 54-1 69-50 69-103 0-29-15-46-42-46-53-1-58 58-62 106" id="aU"/><g id="C"><use transform="matrix(0.05,0,0,0.05,0,0)" xlink:href="#aD"/><use transform="matrix(0.05,0,0,0.05,5.95,0)" xlink:href="#ax"/><use transform="matrix(0.05,0,0,0.05,15.949999999999998,0)" xlink:href="#aU"/><use transform="matrix(0.05,0,0,0.05,25.950000000000003,0)" xlink:href="#az"/><use transform="matrix(0.05,0,0,0.05,35.95,0)" xlink:href="#ax"/><use transform="matrix(0.05,0,0,0.05,45.95,0)" xlink:href="#aC"/><use transform="matrix(0.05,0,0,0.05,54.95,0)" xlink:href="#ay"/></g><g id="D"><use transform="matrix(0.05,0,0,0.05,0,0)" xlink:href="#aA"/><use transform="matrix(0.05,0,0,0.05,10,0)" xlink:href="#aD"/><use transform="matrix(0.05,0,0,0.05,15.949999999999998,0)" xlink:href="#aP"/><use transform="matrix(0.05,0,0,0.05,25.950000000000003,0)" xlink:href="#aP"/><use transform="matrix(0.05,0,0,0.05,35.95,0)" xlink:href="#aO"/></g><path fill="#fff" d="M222 0l43-216c-8 16-17 34-26 49L143 0h-22L81-216 41 0H11l48-248h42l38 208 116-208h45L252 0h-30" id="aV"/><g id="E"><use transform="matrix(0.05,0,0,0.05,0,0)" xlink:href="#aV"/><use transform="matrix(0.05,0,0,0.05,14.950000000000001,0)" xlink:href="#aF"/><use transform="matrix(0.05,0,0,0.05,24.950000000000003,0)" xlink:href="#aC"/><use transform="matrix(0.05,0,0,0.05,33.95,0)" xlink:href="#ay"/><use transform="matrix(0.05,0,0,0.05,38.95,0)" xlink:href="#ax"/><use transform="matrix(0.05,0,0,0.05,48.95,0)" xlink:href="#aD"/></g><path fill="#fff" d="M187 0l-14-72H61L19 0h-37l149-248h38L221 0h-34zm-19-99l-22-123L76-99h92" id="aW"/><g id="F"><use transform="matrix(0.05,0,0,0.05,0,0)" xlink:href="#aW"/><use transform="matrix(0.05,0,0,0.05,12,0)" xlink:href="#aA"/><use transform="matrix(0.05,0,0,0.05,22,0)" xlink:href="#aA"/><use transform="matrix(0.05,0,0,0.05,32,0)" xlink:href="#aD"/><use transform="matrix(0.05,0,0,0.05,37.95,0)" xlink:href="#aP"/><use transform="matrix(0.05,0,0,0.05,47.95,0)" xlink:href="#aQ"/><use transform="matrix(0.05,0,0,0.05,56.95,0)" xlink:href="#ax"/><use transform="matrix(0.05,0,0,0.05,66.95,0)" xlink:href="#aC"/></g><g id="G"><use transform="matrix(0.05,0,0,0.05,0,0)" xlink:href="#aA"/><use transform="matrix(0.05,0,0,0.05,10,0)" xlink:href="#aD"/><use transform="matrix(0.05,0,0,0.05,15.949999999999998,0)" xlink:href="#aP"/><use transform="matrix(0.05,0,0,0.05,25.950000000000003,0)" xlink:href="#aP"/><use transform="matrix(0.05,0,0,0.05,35.95,0)" xlink:href="#aO"/></g><g id="H"><use transform="matrix(0.05,0,0,0.05,0,0)" xlink:href="#aD"/><use transform="matrix(0.05,0,0,0.05,5.95,0)" xlink:href="#ax"/><use transform="matrix(0.05,0,0,0.05,15.949999999999998,0)" xlink:href="#aU"/><use transform="matrix(0.05,0,0,0.05,25.950000000000003,0)" xlink:href="#az"/><use transform="matrix(0.05,0,0,0.05,35.95,0)" xlink:href="#ax"/><use transform="matrix(0.05,0,0,0.05,45.95,0)" xlink:href="#aC"/><use transform="matrix(0.05,0,0,0.05,54.95,0)" xlink:href="#ay"/></g><g id="I"><use transform="matrix(0.05,0,0,0.05,0,0)" xlink:href="#aR"/><use transform="matrix(0.05,0,0,0.05,12,0)" xlink:href="#aD"/><use transform="matrix(0.05,0,0,0.05,17.95,0)" xlink:href="#aP"/><use transform="matrix(0.05,0,0,0.05,27.950000000000003,0)" xlink:href="#aQ"/><use transform="matrix(0.05,0,0,0.05,36.95,0)" xlink:href="#ax"/><use transform="matrix(0.05,0,0,0.05,46.95,0)" xlink:href="#aD"/></g><path fill="#fff" d="M103-194c29 0 47 14 56 36 2-11 5-23 8-32h30L160-5C157 61 82 97 21 62 9 55 4 45 1 30l28-7c7 42 83 31 92-3 4-16 9-38 13-55-13 20-29 36-62 36-40 0-60-25-60-64 0-71 23-131 91-131zm4 24c-53 0-58 54-61 104-2 27 10 44 36 44 49 0 65-50 67-102 1-29-15-46-42-46" id="aX"/><g id="J"><use transform="matrix(0.05,0,0,0.05,0,0)" xlink:href="#aX"/><use transform="matrix(0.05,0,0,0.05,10,0)" xlink:href="#ax"/><use transform="matrix(0.05,0,0,0.05,20,0)" xlink:href="#aG"/><use transform="matrix(0.05,0,0,0.05,30,0)" xlink:href="#ax"/><use transform="matrix(0.05,0,0,0.05,40,0)" xlink:href="#aD"/><use transform="matrix(0.05,0,0,0.05,45.95,0)" xlink:href="#aF"/><use transform="matrix(0.05,0,0,0.05,55.95,0)" xlink:href="#ay"/><use transform="matrix(0.05,0,0,0.05,60.95,0)" xlink:href="#ax"/><use transform="matrix(0.05,0,0,0.05,70.95,0)" xlink:href="#aC"/></g><g id="K"><use transform="matrix(0.05,0,0,0.05,0,0)" xlink:href="#aQ"/><use transform="matrix(0.05,0,0,0.05,9,0)" xlink:href="#ax"/><use transform="matrix(0.05,0,0,0.05,19,0)" xlink:href="#aD"/><use transform="matrix(0.05,0,0,0.05,24.95,0)" xlink:href="#aL"/><use transform="matrix(0.05,0,0,0.05,28.899999999999995,0)" xlink:href="#aO"/><use transform="matrix(0.05,0,0,0.05,33.9,0)" xlink:href="#aL"/><use transform="matrix(0.05,0,0,0.05,37.85,0)" xlink:href="#ax"/><use transform="matrix(0.05,0,0,0.05,47.85,0)" xlink:href="#aC"/></g><g id="L"><use transform="matrix(0.05,0,0,0.05,0,0)" xlink:href="#aA"/><use transform="matrix(0.05,0,0,0.05,10,0)" xlink:href="#aD"/><use transform="matrix(0.05,0,0,0.05,15.949999999999998,0)" xlink:href="#aP"/><use transform="matrix(0.05,0,0,0.05,25.950000000000003,0)" xlink:href="#aP"/><use transform="matrix(0.05,0,0,0.05,35.95,0)" xlink:href="#aO"/></g><g id="M"><use transform="matrix(0.05,0,0,0.05,0,0)" xlink:href="#aR"/><use transform="matrix(0.05,0,0,0.05,12,0)" xlink:href="#aD"/><use transform="matrix(0.05,0,0,0.05,17.95,0)" xlink:href="#aP"/><use transform="matrix(0.05,0,0,0.05,27.950000000000003,0)" xlink:href="#aP"/><use transform="matrix(0.05,0,0,0.05,37.95,0)" xlink:href="#aO"/></g><g id="N"><use transform="matrix(0.05,0,0,0.05,0,0)" xlink:href="#aS"/><use transform="matrix(0.05,0,0,0.05,11.35,0)" xlink:href="#ax"/><use transform="matrix(0.05,0,0,0.05,21.35,0)" xlink:href="#aD"/><use transform="matrix(0.05,0,0,0.05,27.3,0)" xlink:href="#aL"/><use transform="matrix(0.05,0,0,0.05,31.25,0)" xlink:href="#aO"/><use transform="matrix(0.05,0,0,0.05,36.25,0)" xlink:href="#aL"/><use transform="matrix(0.05,0,0,0.05,40.2,0)" xlink:href="#ax"/><use transform="matrix(0.05,0,0,0.05,50.2,0)" xlink:href="#aK"/></g><path fill="#fff" d="M52-101C46-14 166-7 216-51l9-45h-74l6-28h105l-18 87C217-12 181 4 130 4 60 4 18-31 18-101c0-106 78-167 188-146 30 6 48 27 59 54l-34 9c-10-26-31-41-67-40-75 1-107 50-112 123" id="aY"/><g id="O"><use transform="matrix(0.05,0,0,0.05,0,0)" xlink:href="#aY"/><use transform="matrix(0.05,0,0,0.05,14,0)" xlink:href="#ax"/><use transform="matrix(0.05,0,0,0.05,24,0)" xlink:href="#aG"/><use transform="matrix(0.05,0,0,0.05,34,0)" xlink:href="#ax"/><use transform="matrix(0.05,0,0,0.05,44,0)" xlink:href="#aD"/><use transform="matrix(0.05,0,0,0.05,49.95,0)" xlink:href="#aF"/><use transform="matrix(0.05,0,0,0.05,59.95,0)" xlink:href="#ay"/><use transform="matrix(0.05,0,0,0.05,64.95,0)" xlink:href="#ax"/></g><g id="P"><use transform="matrix(0.05,0,0,0.05,0,0)" xlink:href="#aR"/><use transform="matrix(0.05,0,0,0.05,12,0)" xlink:href="#aD"/><use transform="matrix(0.05,0,0,0.05,17.95,0)" xlink:href="#aP"/><use transform="matrix(0.05,0,0,0.05,27.950000000000003,0)" xlink:href="#aP"/><use transform="matrix(0.05,0,0,0.05,37.95,0)" xlink:href="#aO"/></g><g id="Q"><use transform="matrix(0.05,0,0,0.05,0,0)" xlink:href="#aB"/><use transform="matrix(0.05,0,0,0.05,5,0)" xlink:href="#aC"/><use transform="matrix(0.05,0,0,0.05,14,0)" xlink:href="#aC"/><use transform="matrix(0.05,0,0,0.05,23,0)" xlink:href="#az"/><use transform="matrix(0.05,0,0,0.05,33,0)" xlink:href="#ax"/><use transform="matrix(0.05,0,0,0.05,43,0)" xlink:href="#aD"/></g><g id="R"><use transform="matrix(0.05,0,0,0.05,0,0)" xlink:href="#aw"/><use transform="matrix(0.05,0,0,0.05,12,0)" xlink:href="#ax"/><use transform="matrix(0.05,0,0,0.05,22,0)" xlink:href="#ay"/></g><g id="S"><use transform="matrix(0.05,0,0,0.05,0,0)" xlink:href="#az"/><use transform="matrix(0.05,0,0,0.05,10,0)" xlink:href="#aA"/></g><g id="T"><use transform="matrix(0.05,0,0,0.05,0,0)" xlink:href="#aB"/><use transform="matrix(0.05,0,0,0.05,5,0)" xlink:href="#aC"/><use transform="matrix(0.05,0,0,0.05,14,0)" xlink:href="#aC"/><use transform="matrix(0.05,0,0,0.05,23,0)" xlink:href="#az"/><use transform="matrix(0.05,0,0,0.05,33,0)" xlink:href="#ax"/></g><path fill="#fff" d="M188 0h-37l-8-164L71 0H34L18-190h31l8 164 75-164h34l8 164 74-164h31" id="aZ"/><g id="U"><use transform="matrix(0.05,0,0,0.05,0,0)" xlink:href="#aG"/><use transform="matrix(0.05,0,0,0.05,10,0)" xlink:href="#ax"/><use transform="matrix(0.05,0,0,0.05,20,0)" xlink:href="#aZ"/></g><path fill="#fff" d="M11 0l48-248h34L50-27h125l-5 27H11" id="ba"/><g id="V"><use transform="matrix(0.05,0,0,0.05,0,0)" xlink:href="#ba"/><use transform="matrix(0.05,0,0,0.05,10,0)" xlink:href="#aL"/><use transform="matrix(0.05,0,0,0.05,13.949999999999998,0)" xlink:href="#aH"/><use transform="matrix(0.05,0,0,0.05,22.95,0)" xlink:href="#ax"/><use transform="matrix(0.05,0,0,0.05,32.95,0)" xlink:href="#aG"/><use transform="matrix(0.05,0,0,0.05,42.95,0)" xlink:href="#aH"/><use transform="matrix(0.05,0,0,0.05,51.95,0)" xlink:href="#ax"/><use transform="matrix(0.05,0,0,0.05,61.95,0)" xlink:href="#aC"/></g><path fill="#fff" d="M173 0L80-213 41 0H11l48-248h37l94 214 40-214h30L212 0h-39" id="bb"/><g id="W"><use transform="matrix(0.05,0,0,0.05,0,0)" xlink:href="#bb"/><use transform="matrix(0.05,0,0,0.05,12.950000000000001,0)" xlink:href="#ax"/><use transform="matrix(0.05,0,0,0.05,22.950000000000003,0)" xlink:href="#aZ"/></g><g id="X"><use transform="matrix(0.05,0,0,0.05,0,0)" xlink:href="#ba"/><use transform="matrix(0.05,0,0,0.05,10,0)" xlink:href="#aL"/><use transform="matrix(0.05,0,0,0.05,13.949999999999998,0)" xlink:href="#aH"/><use transform="matrix(0.05,0,0,0.05,22.95,0)" xlink:href="#ax"/><use transform="matrix(0.05,0,0,0.05,32.95,0)" xlink:href="#aG"/><use transform="matrix(0.05,0,0,0.05,42.95,0)" xlink:href="#aH"/><use transform="matrix(0.05,0,0,0.05,51.95,0)" xlink:href="#ax"/></g><g id="Y"><use transform="matrix(0.05,0,0,0.05,0,0)" xlink:href="#aB"/><use transform="matrix(0.05,0,0,0.05,5,0)" xlink:href="#aC"/><use transform="matrix(0.05,0,0,0.05,14,0)" xlink:href="#aC"/><use transform="matrix(0.05,0,0,0.05,23,0)" xlink:href="#az"/><use transform="matrix(0.05,0,0,0.05,33,0)" xlink:href="#ax"/><use transform="matrix(0.05,0,0,0.05,43,0)" xlink:href="#aK"/></g><g id="Z"><use transform="matrix(0.05,0,0,0.05,0,0)" xlink:href="#aR"/><use transform="matrix(0.05,0,0,0.05,12,0)" xlink:href="#aD"/><use transform="matrix(0.05,0,0,0.05,17.95,0)" xlink:href="#aP"/><use transform="matrix(0.05,0,0,0.05,27.950000000000003,0)" xlink:href="#aP"/><use transform="matrix(0.05,0,0,0.05,37.95,0)" xlink:href="#aO"/></g><path fill="#fff" d="M198-190L69 30C53 58 25 83-20 72c4-11-1-27 19-22 33-1 43-29 59-52L20-190h32L79-34l84-156h35" id="bc"/><g id="aa"><use transform="matrix(0.05,0,0,0.05,0,0)" xlink:href="#ay"/><use transform="matrix(0.05,0,0,0.05,5,0)" xlink:href="#bc"/><use transform="matrix(0.05,0,0,0.05,14,0)" xlink:href="#aA"/><use transform="matrix(0.05,0,0,0.05,24,0)" xlink:href="#ax"/></g><g id="ab"><use transform="matrix(0.05,0,0,0.05,0,0)" xlink:href="#aR"/><use transform="matrix(0.05,0,0,0.05,12,0)" xlink:href="#aD"/><use transform="matrix(0.05,0,0,0.05,17.95,0)" xlink:href="#aP"/><use transform="matrix(0.05,0,0,0.05,27.950000000000003,0)" xlink:href="#aP"/><use transform="matrix(0.05,0,0,0.05,37.95,0)" xlink:href="#aO"/></g><g id="ac"><use transform="matrix(0.05,0,0,0.05,0,0)" xlink:href="#ay"/><use transform="matrix(0.05,0,0,0.05,5,0)" xlink:href="#bc"/><use transform="matrix(0.05,0,0,0.05,14,0)" xlink:href="#aA"/><use transform="matrix(0.05,0,0,0.05,24,0)" xlink:href="#ax"/></g><g id="ad"><use transform="matrix(0.05,0,0,0.05,0,0)" xlink:href="#aX"/><use transform="matrix(0.05,0,0,0.05,10,0)" xlink:href="#ax"/><use transform="matrix(0.05,0,0,0.05,20,0)" xlink:href="#aG"/><use transform="matrix(0.05,0,0,0.05,30,0)" xlink:href="#ax"/><use transform="matrix(0.05,0,0,0.05,40,0)" xlink:href="#aD"/><use transform="matrix(0.05,0,0,0.05,45.95,0)" xlink:href="#aF"/><use transform="matrix(0.05,0,0,0.05,55.95,0)" xlink:href="#ay"/><use transform="matrix(0.05,0,0,0.05,60.95,0)" xlink:href="#ax"/><use transform="matrix(0.05,0,0,0.05,70.95,0)" xlink:href="#aK"/></g><g id="ae"><use transform="matrix(0.05,0,0,0.05,0,0)" xlink:href="#aC"/><use transform="matrix(0.05,0,0,0.05,9,0)" xlink:href="#ax"/><use transform="matrix(0.05,0,0,0.05,19,0)" xlink:href="#aM"/><use transform="matrix(0.05,0,0,0.05,22.95,0)" xlink:href="#ax"/><use transform="matrix(0.05,0,0,0.05,32.95,0)" xlink:href="#aH"/><use transform="matrix(0.05,0,0,0.05,41.95,0)" xlink:href="#ay"/><use transform="matrix(0.05,0,0,0.05,46.95,0)" xlink:href="#aC"/></g></defs></g></svg>